<mxfile host="Electron" modified="2025-10-17T13:47:58.332Z" agent="Mozilla/5.0 (X11; Linux x86_64) AppleWebKit/537.36 (KHTML, like Gecko) draw.io/23.1.5 Chrome/120.0.6099.109 Electron/28.1.0 Safari/537.36" etag="culkMpQPV7dOp5I2ClTy" version="23.1.5" type="device">
  <diagram name="Page-1" id="k5dwUtTth9XdWgMqPysN">
    <mxGraphModel dx="3410" dy="2108" grid="1" gridSize="10" guides="1" tooltips="1" connect="1" arrows="1" fold="1" page="1" pageScale="1" pageWidth="850" pageHeight="1100" math="0" shadow="0">
      <root>
        <mxCell id="0" />
        <mxCell id="1" parent="0" />
        <mxCell id="cKGT3dl9DpxPmVf2oj0G-1" value="" style="group" vertex="1" connectable="0" parent="1">
          <mxGeometry x="150" y="133" width="655" height="337" as="geometry" />
        </mxCell>
        <mxCell id="2YrX-u0NW7u-9xZiHRSa-30" value="" style="rounded=1;whiteSpace=wrap;html=1;dashed=1;fillColor=#e1d5e7;strokeColor=#9673a6;" parent="cKGT3dl9DpxPmVf2oj0G-1" vertex="1">
          <mxGeometry x="93" y="39" width="192" height="91" as="geometry" />
        </mxCell>
        <mxCell id="2YrX-u0NW7u-9xZiHRSa-48" value="" style="shape=cube;whiteSpace=wrap;html=1;boundedLbl=1;backgroundOutline=1;darkOpacity=0.05;darkOpacity2=0.1;flipV=0;flipH=1;size=57;movable=1;resizable=1;rotatable=1;deletable=1;editable=1;locked=0;connectable=1;shadow=0;fillColor=#60a917;fontColor=#ffffff;strokeColor=#2D7600;horizontal=0;gradientColor=none;" parent="cKGT3dl9DpxPmVf2oj0G-1" vertex="1">
          <mxGeometry x="105" y="42" width="99" height="78" as="geometry" />
        </mxCell>
        <mxCell id="2YrX-u0NW7u-9xZiHRSa-31" value="" style="rounded=1;whiteSpace=wrap;html=1;dashed=1;fillColor=#76608a;fontColor=#ffffff;strokeColor=#432D57;" parent="cKGT3dl9DpxPmVf2oj0G-1" vertex="1">
          <mxGeometry x="315" y="27.5" width="180" height="102.5" as="geometry" />
        </mxCell>
        <mxCell id="2YrX-u0NW7u-9xZiHRSa-17" value="" style="shape=cube;whiteSpace=wrap;html=1;boundedLbl=1;backgroundOutline=1;darkOpacity=0.05;darkOpacity2=0.1;flipV=0;flipH=1;fillColor=#f8cecc;strokeColor=#b85450;" parent="cKGT3dl9DpxPmVf2oj0G-1" vertex="1">
          <mxGeometry x="15" y="207" width="30" height="80" as="geometry" />
        </mxCell>
        <mxCell id="2YrX-u0NW7u-9xZiHRSa-20" value="" style="shape=cube;whiteSpace=wrap;html=1;boundedLbl=1;backgroundOutline=1;darkOpacity=0.05;darkOpacity2=0.1;flipV=0;flipH=1;fillColor=#bac8d3;strokeColor=#23445d;" parent="cKGT3dl9DpxPmVf2oj0G-1" vertex="1">
          <mxGeometry x="410" y="38.75" width="70" height="80" as="geometry" />
        </mxCell>
        <mxCell id="2YrX-u0NW7u-9xZiHRSa-21" value="" style="shape=cube;whiteSpace=wrap;html=1;boundedLbl=1;backgroundOutline=1;darkOpacity=0.05;darkOpacity2=0.1;flipV=0;flipH=1;fillColor=#1ba1e2;fontColor=#ffffff;strokeColor=#006EAF;" parent="cKGT3dl9DpxPmVf2oj0G-1" vertex="1">
          <mxGeometry x="325" y="38.75" width="70" height="80" as="geometry" />
        </mxCell>
        <mxCell id="2YrX-u0NW7u-9xZiHRSa-32" value="&lt;font style=&quot;font-size: 8px;&quot;&gt;Input feature&lt;br&gt;&amp;nbsp;(Image)&lt;/font&gt;" style="text;html=1;align=center;verticalAlign=middle;resizable=0;points=[];autosize=1;strokeColor=none;fillColor=none;" parent="cKGT3dl9DpxPmVf2oj0G-1" vertex="1">
          <mxGeometry y="297" width="70" height="40" as="geometry" />
        </mxCell>
        <mxCell id="2YrX-u0NW7u-9xZiHRSa-33" value="&lt;font style=&quot;font-size: 8px;&quot;&gt;PatchEmbedding&lt;/font&gt;" style="text;html=1;align=center;verticalAlign=middle;resizable=0;points=[];autosize=1;strokeColor=none;fillColor=none;" parent="cKGT3dl9DpxPmVf2oj0G-1" vertex="1">
          <mxGeometry x="105" y="287" width="80" height="30" as="geometry" />
        </mxCell>
        <mxCell id="2YrX-u0NW7u-9xZiHRSa-34" value="&lt;div style=&quot;color: rgb(59, 59, 59); background-color: rgb(255, 255, 255); font-family: &amp;quot;Droid Sans Mono&amp;quot;, &amp;quot;monospace&amp;quot;, monospace; line-height: 19px;&quot;&gt;&lt;font style=&quot;font-size: 8px;&quot;&gt;Conv2d&lt;/font&gt;&lt;/div&gt;" style="text;html=1;align=center;verticalAlign=middle;resizable=0;points=[];autosize=1;strokeColor=none;fillColor=none;" parent="cKGT3dl9DpxPmVf2oj0G-1" vertex="1">
          <mxGeometry x="98" y="126" width="50" height="30" as="geometry" />
        </mxCell>
        <mxCell id="2YrX-u0NW7u-9xZiHRSa-36" value="&lt;div style=&quot;color: rgb(59, 59, 59); background-color: rgb(255, 255, 255); font-family: &amp;quot;Droid Sans Mono&amp;quot;, &amp;quot;monospace&amp;quot;, monospace; line-height: 19px;&quot;&gt;&lt;font style=&quot;font-size: 8px;&quot;&gt;LayerNorm&lt;/font&gt;&lt;/div&gt;" style="text;html=1;align=center;verticalAlign=middle;resizable=0;points=[];autosize=1;strokeColor=none;fillColor=none;" parent="cKGT3dl9DpxPmVf2oj0G-1" vertex="1">
          <mxGeometry x="200" y="126" width="70" height="30" as="geometry" />
        </mxCell>
        <mxCell id="2YrX-u0NW7u-9xZiHRSa-52" value="&lt;p style=&quot;line-height: 40%;&quot;&gt;&lt;font style=&quot;font-size: 8px;&quot;&gt;128 &lt;br&gt;channels&lt;/font&gt;&lt;/p&gt;" style="text;html=1;align=center;verticalAlign=middle;resizable=0;points=[];autosize=1;strokeColor=none;fillColor=none;" parent="cKGT3dl9DpxPmVf2oj0G-1" vertex="1">
          <mxGeometry x="80" y="42" width="60" height="50" as="geometry" />
        </mxCell>
        <mxCell id="2YrX-u0NW7u-9xZiHRSa-55" value="&lt;font style=&quot;font-size: 8px;&quot;&gt;16x16 dim&lt;/font&gt;" style="text;html=1;align=center;verticalAlign=middle;resizable=0;points=[];autosize=1;strokeColor=none;fillColor=none;" parent="cKGT3dl9DpxPmVf2oj0G-1" vertex="1">
          <mxGeometry x="93" y="109" width="60" height="30" as="geometry" />
        </mxCell>
        <mxCell id="2YrX-u0NW7u-9xZiHRSa-56" value="PatchEmbedding" style="text;html=1;align=center;verticalAlign=middle;resizable=0;points=[];autosize=1;strokeColor=none;fillColor=none;" parent="cKGT3dl9DpxPmVf2oj0G-1" vertex="1">
          <mxGeometry x="125" width="110" height="30" as="geometry" />
        </mxCell>
        <mxCell id="2YrX-u0NW7u-9xZiHRSa-61" value="&lt;div style=&quot;color: rgb(59, 59, 59); background-color: rgb(255, 255, 255); font-family: &amp;quot;Droid Sans Mono&amp;quot;, &amp;quot;monospace&amp;quot;, monospace; line-height: 19px;&quot;&gt;&lt;font style=&quot;font-size: 8px;&quot;&gt;ssm_blocks&lt;/font&gt;&lt;/div&gt;" style="text;html=1;align=center;verticalAlign=middle;resizable=0;points=[];autosize=1;strokeColor=none;fillColor=none;" parent="cKGT3dl9DpxPmVf2oj0G-1" vertex="1">
          <mxGeometry x="325" y="287" width="70" height="30" as="geometry" />
        </mxCell>
        <mxCell id="2YrX-u0NW7u-9xZiHRSa-62" value="&lt;div style=&quot;color: rgb(59, 59, 59); background-color: rgb(255, 255, 255); font-family: &amp;quot;Droid Sans Mono&amp;quot;, &amp;quot;monospace&amp;quot;, monospace; line-height: 19px;&quot;&gt;&lt;font style=&quot;font-size: 8px;&quot;&gt;Mamba2&lt;/font&gt;&lt;/div&gt;" style="text;html=1;align=center;verticalAlign=middle;resizable=0;points=[];autosize=1;strokeColor=none;fillColor=none;" parent="cKGT3dl9DpxPmVf2oj0G-1" vertex="1">
          <mxGeometry x="410" y="126" width="50" height="30" as="geometry" />
        </mxCell>
        <mxCell id="2YrX-u0NW7u-9xZiHRSa-63" value="&lt;div style=&quot;color: rgb(59, 59, 59); background-color: rgb(255, 255, 255); font-family: &amp;quot;Droid Sans Mono&amp;quot;, &amp;quot;monospace&amp;quot;, monospace; line-height: 19px; font-size: 8px;&quot;&gt;&lt;font style=&quot;font-size: 8px;&quot;&gt;LayerNorm&lt;/font&gt;&lt;/div&gt;" style="text;html=1;align=center;verticalAlign=middle;resizable=0;points=[];autosize=1;strokeColor=none;fillColor=none;fontSize=8;" parent="cKGT3dl9DpxPmVf2oj0G-1" vertex="1">
          <mxGeometry x="315" y="126" width="70" height="30" as="geometry" />
        </mxCell>
        <mxCell id="2YrX-u0NW7u-9xZiHRSa-66" value="&lt;div style=&quot;color: rgb(59, 59, 59); background-color: rgb(255, 255, 255); font-family: &amp;quot;Droid Sans Mono&amp;quot;, &amp;quot;monospace&amp;quot;, monospace; font-size: 14px; line-height: 19px;&quot;&gt;SSM_Blocks&lt;/div&gt;" style="text;html=1;align=center;verticalAlign=middle;resizable=0;points=[];autosize=1;strokeColor=none;fillColor=none;" parent="cKGT3dl9DpxPmVf2oj0G-1" vertex="1">
          <mxGeometry x="350" width="110" height="30" as="geometry" />
        </mxCell>
        <mxCell id="2YrX-u0NW7u-9xZiHRSa-68" value="&lt;div style=&quot;color: rgb(59, 59, 59); background-color: rgb(255, 255, 255); font-family: &amp;quot;Droid Sans Mono&amp;quot;, &amp;quot;monospace&amp;quot;, monospace; line-height: 19px;&quot;&gt;&lt;font style=&quot;font-size: 8px;&quot;&gt;flatten&lt;/font&gt;&lt;/div&gt;" style="text;html=1;align=center;verticalAlign=middle;resizable=0;points=[];autosize=1;strokeColor=none;fillColor=none;" parent="cKGT3dl9DpxPmVf2oj0G-1" vertex="1">
          <mxGeometry x="144" y="126" width="60" height="30" as="geometry" />
        </mxCell>
        <mxCell id="2YrX-u0NW7u-9xZiHRSa-69" value="" style="shape=cube;whiteSpace=wrap;html=1;boundedLbl=1;backgroundOutline=1;darkOpacity=0.05;darkOpacity2=0.1;flipV=0;flipH=1;size=57;movable=1;resizable=1;rotatable=1;deletable=1;editable=1;locked=0;connectable=1;shadow=0;fillColor=#e3c800;fontColor=#000000;strokeColor=#B09500;" parent="cKGT3dl9DpxPmVf2oj0G-1" vertex="1">
          <mxGeometry x="167.5" y="52" width="95" height="60" as="geometry" />
        </mxCell>
        <mxCell id="2YrX-u0NW7u-9xZiHRSa-51" value="" style="shape=cube;whiteSpace=wrap;html=1;boundedLbl=1;backgroundOutline=1;darkOpacity=0.05;darkOpacity2=0.1;flipV=0;flipH=1;size=58;movable=1;resizable=1;rotatable=1;deletable=1;editable=1;locked=0;connectable=1;shadow=0;fillColor=#1ba1e2;fontColor=#ffffff;strokeColor=#006EAF;" parent="cKGT3dl9DpxPmVf2oj0G-1" vertex="1">
          <mxGeometry x="215" y="51" width="65" height="61" as="geometry" />
        </mxCell>
        <mxCell id="2YrX-u0NW7u-9xZiHRSa-73" value="&lt;span style=&quot;font-size: 8px;&quot;&gt;256 dim&lt;/span&gt;" style="text;html=1;align=center;verticalAlign=middle;resizable=0;points=[];autosize=1;strokeColor=none;fillColor=none;" parent="cKGT3dl9DpxPmVf2oj0G-1" vertex="1">
          <mxGeometry x="162.5" y="102" width="50" height="30" as="geometry" />
        </mxCell>
        <mxCell id="GI1RUGzhNsKxRHVBm3hL-1" value="&lt;font style=&quot;font-size: 8px;&quot;&gt;3x128x128 dim&lt;/font&gt;" style="text;html=1;align=center;verticalAlign=middle;resizable=0;points=[];autosize=1;strokeColor=none;fillColor=none;" parent="cKGT3dl9DpxPmVf2oj0G-1" vertex="1">
          <mxGeometry x="3" y="280" width="80" height="30" as="geometry" />
        </mxCell>
        <mxCell id="GI1RUGzhNsKxRHVBm3hL-2" style="edgeStyle=orthogonalEdgeStyle;rounded=0;orthogonalLoop=1;jettySize=auto;html=1;entryX=0;entryY=0.5;entryDx=0;entryDy=0;entryPerimeter=0;" parent="cKGT3dl9DpxPmVf2oj0G-1" edge="1">
          <mxGeometry relative="1" as="geometry">
            <mxPoint x="28" y="246.8900000000001" as="sourcePoint" />
            <mxPoint x="58" y="247.01" as="targetPoint" />
            <Array as="points" />
          </mxGeometry>
        </mxCell>
        <mxCell id="2YrX-u0NW7u-9xZiHRSa-38" value="" style="shape=cube;whiteSpace=wrap;html=1;boundedLbl=1;backgroundOutline=1;darkOpacity=0.05;darkOpacity2=0.1;flipV=0;flipH=1;fillColor=#d5e8d4;strokeColor=#82b366;" parent="cKGT3dl9DpxPmVf2oj0G-1" vertex="1">
          <mxGeometry x="35" y="207" width="30" height="80" as="geometry" />
        </mxCell>
        <mxCell id="GI1RUGzhNsKxRHVBm3hL-4" style="edgeStyle=orthogonalEdgeStyle;rounded=0;orthogonalLoop=1;jettySize=auto;html=1;entryX=0;entryY=0.5;entryDx=0;entryDy=0;entryPerimeter=0;" parent="cKGT3dl9DpxPmVf2oj0G-1" edge="1">
          <mxGeometry relative="1" as="geometry">
            <mxPoint x="50" y="246.8900000000001" as="sourcePoint" />
            <mxPoint x="80" y="247.01" as="targetPoint" />
            <Array as="points" />
          </mxGeometry>
        </mxCell>
        <mxCell id="2YrX-u0NW7u-9xZiHRSa-39" value="" style="shape=cube;whiteSpace=wrap;html=1;boundedLbl=1;backgroundOutline=1;darkOpacity=0.05;darkOpacity2=0.1;flipV=0;flipH=1;fillColor=#dae8fc;strokeColor=#6c8ebf;" parent="cKGT3dl9DpxPmVf2oj0G-1" vertex="1">
          <mxGeometry x="55" y="207" width="30" height="80" as="geometry" />
        </mxCell>
        <mxCell id="2YrX-u0NW7u-9xZiHRSa-59" style="edgeStyle=orthogonalEdgeStyle;rounded=0;orthogonalLoop=1;jettySize=auto;html=1;entryX=0;entryY=0.5;entryDx=0;entryDy=0;entryPerimeter=0;" parent="cKGT3dl9DpxPmVf2oj0G-1" target="2YrX-u0NW7u-9xZiHRSa-53" edge="1">
          <mxGeometry relative="1" as="geometry">
            <mxPoint x="75" y="246.8800000000001" as="sourcePoint" />
            <mxPoint x="95" y="246.8800000000001" as="targetPoint" />
            <Array as="points" />
          </mxGeometry>
        </mxCell>
        <mxCell id="2YrX-u0NW7u-9xZiHRSa-22" value="" style="shape=cube;whiteSpace=wrap;html=1;boundedLbl=1;backgroundOutline=1;darkOpacity=0.05;darkOpacity2=0.1;flipV=0;flipH=1;fillColor=#e1d5e7;strokeColor=#9673a6;" parent="cKGT3dl9DpxPmVf2oj0G-1" vertex="1">
          <mxGeometry x="95" y="207" width="110" height="80" as="geometry" />
        </mxCell>
        <mxCell id="2YrX-u0NW7u-9xZiHRSa-53" value="&lt;font style=&quot;font-size: 8px;&quot;&gt;patch_size 8&lt;/font&gt;" style="text;html=1;align=center;verticalAlign=middle;resizable=0;points=[];autosize=1;strokeColor=none;fillColor=none;" parent="cKGT3dl9DpxPmVf2oj0G-1" vertex="1">
          <mxGeometry x="105" y="232" width="70" height="30" as="geometry" />
        </mxCell>
        <mxCell id="2YrX-u0NW7u-9xZiHRSa-57" value="&lt;font style=&quot;font-size: 8px;&quot;&gt;embed_dim 128&lt;/font&gt;" style="text;html=1;align=center;verticalAlign=middle;resizable=0;points=[];autosize=1;strokeColor=none;fillColor=none;" parent="cKGT3dl9DpxPmVf2oj0G-1" vertex="1">
          <mxGeometry x="100" y="252" width="80" height="30" as="geometry" />
        </mxCell>
        <mxCell id="GI1RUGzhNsKxRHVBm3hL-11" style="edgeStyle=orthogonalEdgeStyle;rounded=0;orthogonalLoop=1;jettySize=auto;html=1;entryX=0.673;entryY=0.5;entryDx=0;entryDy=0;entryPerimeter=0;" parent="cKGT3dl9DpxPmVf2oj0G-1" source="2YrX-u0NW7u-9xZiHRSa-22" target="2YrX-u0NW7u-9xZiHRSa-23" edge="1">
          <mxGeometry relative="1" as="geometry" />
        </mxCell>
        <mxCell id="2YrX-u0NW7u-9xZiHRSa-23" value="" style="shape=cube;whiteSpace=wrap;html=1;boundedLbl=1;backgroundOutline=1;darkOpacity=0.05;darkOpacity2=0.1;flipV=0;flipH=1;fillColor=#76608a;fontColor=#ffffff;strokeColor=#432D57;" parent="cKGT3dl9DpxPmVf2oj0G-1" vertex="1">
          <mxGeometry x="223" y="207" width="52" height="80" as="geometry" />
        </mxCell>
        <mxCell id="GI1RUGzhNsKxRHVBm3hL-12" style="edgeStyle=orthogonalEdgeStyle;rounded=0;orthogonalLoop=1;jettySize=auto;html=1;entryX=0.673;entryY=0.5;entryDx=0;entryDy=0;entryPerimeter=0;" parent="cKGT3dl9DpxPmVf2oj0G-1" edge="1">
          <mxGeometry relative="1" as="geometry">
            <mxPoint x="260" y="247" as="sourcePoint" />
            <mxPoint x="293" y="246.89999999999998" as="targetPoint" />
          </mxGeometry>
        </mxCell>
        <mxCell id="GI1RUGzhNsKxRHVBm3hL-6" value="" style="shape=cube;whiteSpace=wrap;html=1;boundedLbl=1;backgroundOutline=1;darkOpacity=0.05;darkOpacity2=0.1;flipV=0;flipH=1;fillColor=#76608a;fontColor=#ffffff;strokeColor=#432D57;" parent="cKGT3dl9DpxPmVf2oj0G-1" vertex="1">
          <mxGeometry x="268" y="207" width="52" height="80" as="geometry" />
        </mxCell>
        <mxCell id="GI1RUGzhNsKxRHVBm3hL-13" style="edgeStyle=orthogonalEdgeStyle;rounded=0;orthogonalLoop=1;jettySize=auto;html=1;" parent="cKGT3dl9DpxPmVf2oj0G-1" edge="1">
          <mxGeometry relative="1" as="geometry">
            <mxPoint x="310" y="246.86" as="sourcePoint" />
            <mxPoint x="330" y="247" as="targetPoint" />
          </mxGeometry>
        </mxCell>
        <mxCell id="GI1RUGzhNsKxRHVBm3hL-7" value="" style="shape=cube;whiteSpace=wrap;html=1;boundedLbl=1;backgroundOutline=1;darkOpacity=0.05;darkOpacity2=0.1;flipV=0;flipH=1;fillColor=#76608a;fontColor=#ffffff;strokeColor=#432D57;" parent="cKGT3dl9DpxPmVf2oj0G-1" vertex="1">
          <mxGeometry x="317" y="207" width="52" height="80" as="geometry" />
        </mxCell>
        <mxCell id="GI1RUGzhNsKxRHVBm3hL-15" style="edgeStyle=orthogonalEdgeStyle;rounded=0;orthogonalLoop=1;jettySize=auto;html=1;" parent="cKGT3dl9DpxPmVf2oj0G-1" edge="1">
          <mxGeometry relative="1" as="geometry">
            <mxPoint x="357" y="246.93" as="sourcePoint" />
            <mxPoint x="377" y="247.07" as="targetPoint" />
          </mxGeometry>
        </mxCell>
        <mxCell id="GI1RUGzhNsKxRHVBm3hL-8" value="" style="shape=cube;whiteSpace=wrap;html=1;boundedLbl=1;backgroundOutline=1;darkOpacity=0.05;darkOpacity2=0.1;flipV=0;flipH=1;fillColor=#76608a;fontColor=#ffffff;strokeColor=#432D57;" parent="cKGT3dl9DpxPmVf2oj0G-1" vertex="1">
          <mxGeometry x="365" y="207" width="52" height="80" as="geometry" />
        </mxCell>
        <mxCell id="GI1RUGzhNsKxRHVBm3hL-20" style="edgeStyle=orthogonalEdgeStyle;rounded=0;orthogonalLoop=1;jettySize=auto;html=1;" parent="cKGT3dl9DpxPmVf2oj0G-1" edge="1">
          <mxGeometry relative="1" as="geometry">
            <mxPoint x="405" y="246.93" as="sourcePoint" />
            <mxPoint x="425" y="247.07" as="targetPoint" />
          </mxGeometry>
        </mxCell>
        <mxCell id="GI1RUGzhNsKxRHVBm3hL-9" value="" style="shape=cube;whiteSpace=wrap;html=1;boundedLbl=1;backgroundOutline=1;darkOpacity=0.05;darkOpacity2=0.1;flipV=0;flipH=1;fillColor=#76608a;fontColor=#ffffff;strokeColor=#432D57;" parent="cKGT3dl9DpxPmVf2oj0G-1" vertex="1">
          <mxGeometry x="413" y="207" width="52" height="80" as="geometry" />
        </mxCell>
        <mxCell id="GI1RUGzhNsKxRHVBm3hL-22" style="edgeStyle=orthogonalEdgeStyle;rounded=0;orthogonalLoop=1;jettySize=auto;html=1;" parent="cKGT3dl9DpxPmVf2oj0G-1" edge="1">
          <mxGeometry relative="1" as="geometry">
            <mxPoint x="456" y="246.90000000000003" as="sourcePoint" />
            <mxPoint x="476" y="247.04000000000002" as="targetPoint" />
          </mxGeometry>
        </mxCell>
        <mxCell id="GI1RUGzhNsKxRHVBm3hL-10" value="" style="shape=cube;whiteSpace=wrap;html=1;boundedLbl=1;backgroundOutline=1;darkOpacity=0.05;darkOpacity2=0.1;flipV=0;flipH=1;fillColor=#76608a;fontColor=#ffffff;strokeColor=#432D57;" parent="cKGT3dl9DpxPmVf2oj0G-1" vertex="1">
          <mxGeometry x="462" y="207" width="52" height="80" as="geometry" />
        </mxCell>
        <mxCell id="GI1RUGzhNsKxRHVBm3hL-23" style="edgeStyle=orthogonalEdgeStyle;rounded=0;orthogonalLoop=1;jettySize=auto;html=1;" parent="cKGT3dl9DpxPmVf2oj0G-1" edge="1">
          <mxGeometry relative="1" as="geometry">
            <mxPoint x="172.5" y="217" as="sourcePoint" />
            <mxPoint x="252.5" y="217" as="targetPoint" />
            <Array as="points">
              <mxPoint x="172.5" y="197" />
              <mxPoint x="252.5" y="197" />
            </Array>
          </mxGeometry>
        </mxCell>
        <mxCell id="GI1RUGzhNsKxRHVBm3hL-24" style="edgeStyle=orthogonalEdgeStyle;rounded=0;orthogonalLoop=1;jettySize=auto;html=1;" parent="cKGT3dl9DpxPmVf2oj0G-1" edge="1">
          <mxGeometry relative="1" as="geometry">
            <mxPoint x="250" y="197" as="sourcePoint" />
            <mxPoint x="300" y="217" as="targetPoint" />
            <Array as="points">
              <mxPoint x="253" y="197" />
              <mxPoint x="300" y="197" />
              <mxPoint x="300" y="217" />
            </Array>
          </mxGeometry>
        </mxCell>
        <mxCell id="GI1RUGzhNsKxRHVBm3hL-25" style="edgeStyle=orthogonalEdgeStyle;rounded=0;orthogonalLoop=1;jettySize=auto;html=1;" parent="cKGT3dl9DpxPmVf2oj0G-1" edge="1">
          <mxGeometry relative="1" as="geometry">
            <mxPoint x="300" y="197" as="sourcePoint" />
            <mxPoint x="347.5" y="217" as="targetPoint" />
            <Array as="points">
              <mxPoint x="300.5" y="197" />
              <mxPoint x="347.5" y="197" />
              <mxPoint x="347.5" y="217" />
            </Array>
          </mxGeometry>
        </mxCell>
        <mxCell id="GI1RUGzhNsKxRHVBm3hL-26" style="edgeStyle=orthogonalEdgeStyle;rounded=0;orthogonalLoop=1;jettySize=auto;html=1;" parent="cKGT3dl9DpxPmVf2oj0G-1" edge="1">
          <mxGeometry relative="1" as="geometry">
            <mxPoint x="350" y="197" as="sourcePoint" />
            <mxPoint x="395" y="217" as="targetPoint" />
            <Array as="points">
              <mxPoint x="348" y="197" />
              <mxPoint x="395" y="197" />
              <mxPoint x="395" y="217" />
            </Array>
          </mxGeometry>
        </mxCell>
        <mxCell id="GI1RUGzhNsKxRHVBm3hL-27" style="edgeStyle=orthogonalEdgeStyle;rounded=0;orthogonalLoop=1;jettySize=auto;html=1;" parent="cKGT3dl9DpxPmVf2oj0G-1" edge="1">
          <mxGeometry relative="1" as="geometry">
            <mxPoint x="395" y="208" as="sourcePoint" />
            <mxPoint x="442.5" y="217" as="targetPoint" />
            <Array as="points">
              <mxPoint x="395.5" y="197" />
              <mxPoint x="442.5" y="197" />
              <mxPoint x="442.5" y="217" />
            </Array>
          </mxGeometry>
        </mxCell>
        <mxCell id="GI1RUGzhNsKxRHVBm3hL-28" style="edgeStyle=orthogonalEdgeStyle;rounded=0;orthogonalLoop=1;jettySize=auto;html=1;" parent="cKGT3dl9DpxPmVf2oj0G-1" edge="1">
          <mxGeometry relative="1" as="geometry">
            <mxPoint x="443" y="210" as="sourcePoint" />
            <mxPoint x="490.5" y="217" as="targetPoint" />
            <Array as="points">
              <mxPoint x="443.5" y="197" />
              <mxPoint x="490.5" y="197" />
              <mxPoint x="490.5" y="217" />
            </Array>
          </mxGeometry>
        </mxCell>
        <mxCell id="GI1RUGzhNsKxRHVBm3hL-31" value="&lt;span style=&quot;font-size: 8px;&quot;&gt;256 dim&lt;/span&gt;" style="text;html=1;align=center;verticalAlign=middle;resizable=0;points=[];autosize=1;strokeColor=none;fillColor=none;" parent="cKGT3dl9DpxPmVf2oj0G-1" vertex="1">
          <mxGeometry x="326" y="107" width="50" height="30" as="geometry" />
        </mxCell>
        <mxCell id="GI1RUGzhNsKxRHVBm3hL-33" value="&lt;p style=&quot;line-height: 60%;&quot;&gt;&lt;span style=&quot;font-size: 8px;&quot;&gt;d state 64&lt;br&gt;d conv 4&lt;br&gt;&amp;nbsp;expand 2 &lt;br&gt;head dim 32&lt;br&gt;&lt;/span&gt;&lt;/p&gt;" style="text;html=1;align=center;verticalAlign=middle;resizable=0;points=[];autosize=1;strokeColor=none;fillColor=none;" parent="cKGT3dl9DpxPmVf2oj0G-1" vertex="1">
          <mxGeometry x="400" y="52" width="70" height="70" as="geometry" />
        </mxCell>
        <mxCell id="GI1RUGzhNsKxRHVBm3hL-34" value="&lt;div style=&quot;color: rgb(59, 59, 59); background-color: rgb(255, 255, 255); font-family: &amp;quot;Droid Sans Mono&amp;quot;, &amp;quot;monospace&amp;quot;, monospace; line-height: 19px; font-size: 8px;&quot;&gt;&lt;font style=&quot;font-size: 8px;&quot;&gt;LayerNorm&lt;/font&gt;&lt;/div&gt;" style="text;html=1;align=center;verticalAlign=middle;resizable=0;points=[];autosize=1;strokeColor=none;fillColor=none;fontSize=8;" parent="cKGT3dl9DpxPmVf2oj0G-1" vertex="1">
          <mxGeometry x="500" y="282" width="70" height="30" as="geometry" />
        </mxCell>
        <mxCell id="GI1RUGzhNsKxRHVBm3hL-35" value="&lt;div style=&quot;color: rgb(59, 59, 59); background-color: rgb(255, 255, 255); font-family: &amp;quot;Droid Sans Mono&amp;quot;, &amp;quot;monospace&amp;quot;, monospace; line-height: 19px;&quot;&gt;&lt;div style=&quot;line-height: 19px;&quot;&gt;&lt;font style=&quot;font-size: 8px;&quot;&gt;Linear&lt;/font&gt;&lt;/div&gt;&lt;/div&gt;" style="text;html=1;align=center;verticalAlign=middle;resizable=0;points=[];autosize=1;strokeColor=none;fillColor=none;fontSize=8;" parent="cKGT3dl9DpxPmVf2oj0G-1" vertex="1">
          <mxGeometry x="570" y="280" width="50" height="30" as="geometry" />
        </mxCell>
        <mxCell id="GI1RUGzhNsKxRHVBm3hL-36" value="&lt;p style=&quot;line-height: 40%;&quot;&gt;&lt;font style=&quot;font-size: 8px;&quot;&gt;128 dim&lt;br&gt;&lt;/font&gt;&lt;/p&gt;" style="text;html=1;align=center;verticalAlign=middle;resizable=0;points=[];autosize=1;strokeColor=none;fillColor=none;" parent="cKGT3dl9DpxPmVf2oj0G-1" vertex="1">
          <mxGeometry x="605" y="242" width="50" height="40" as="geometry" />
        </mxCell>
        <mxCell id="GI1RUGzhNsKxRHVBm3hL-37" style="edgeStyle=orthogonalEdgeStyle;rounded=0;orthogonalLoop=1;jettySize=auto;html=1;" parent="cKGT3dl9DpxPmVf2oj0G-1" edge="1">
          <mxGeometry relative="1" as="geometry">
            <mxPoint x="500" y="246.90000000000003" as="sourcePoint" />
            <mxPoint x="520" y="247.04000000000002" as="targetPoint" />
          </mxGeometry>
        </mxCell>
        <mxCell id="GI1RUGzhNsKxRHVBm3hL-29" value="" style="shape=cube;whiteSpace=wrap;html=1;boundedLbl=1;backgroundOutline=1;darkOpacity=0.05;darkOpacity2=0.1;flipV=0;flipH=1;fillColor=#1ba1e2;fontColor=#ffffff;strokeColor=#006EAF;" parent="cKGT3dl9DpxPmVf2oj0G-1" vertex="1">
          <mxGeometry x="510" y="207" width="70" height="80" as="geometry" />
        </mxCell>
        <mxCell id="GI1RUGzhNsKxRHVBm3hL-39" style="edgeStyle=orthogonalEdgeStyle;rounded=0;orthogonalLoop=1;jettySize=auto;html=1;" parent="cKGT3dl9DpxPmVf2oj0G-1" edge="1">
          <mxGeometry relative="1" as="geometry">
            <mxPoint x="570" y="246.90000000000003" as="sourcePoint" />
            <mxPoint x="590" y="247.04000000000002" as="targetPoint" />
          </mxGeometry>
        </mxCell>
        <mxCell id="GI1RUGzhNsKxRHVBm3hL-30" value="" style="shape=cube;whiteSpace=wrap;html=1;boundedLbl=1;backgroundOutline=1;darkOpacity=0.05;darkOpacity2=0.1;flipV=0;flipH=1;fillColor=#fad7ac;strokeColor=#b46504;size=60;" parent="cKGT3dl9DpxPmVf2oj0G-1" vertex="1">
          <mxGeometry x="560" y="207" width="70" height="80" as="geometry" />
        </mxCell>
        <mxCell id="GI1RUGzhNsKxRHVBm3hL-45" value="&lt;font style=&quot;font-size: 8px;&quot;&gt;residual connections&lt;/font&gt;" style="text;whiteSpace=wrap;html=1;" parent="cKGT3dl9DpxPmVf2oj0G-1" vertex="1">
          <mxGeometry x="317" y="173" width="140" height="40" as="geometry" />
        </mxCell>
      </root>
    </mxGraphModel>
  </diagram>
</mxfile>
